<svg xmlns="http://www.w3.org/2000/svg" width="139.659" height="46.683" viewBox="0 0 139.659 46.683"><g transform="translate(0)"><path d="M6994.226,4707.655H6876.816c-.428,0-.851,0-1.278,0-.357,0-.71.009-1.073.015a15.5,15.5,0,0,0-2.337.205,7.837,7.837,0,0,0-2.219.732,7.553,7.553,0,0,0-1.89,1.376,7.31,7.31,0,0,0-1.375,1.892,7.7,7.7,0,0,0-.729,2.222,15.1,15.1,0,0,0-.209,2.336c-.012.356-.013.717-.019,1.074v26.977c.006.362.007.713.019,1.077a15.081,15.081,0,0,0,.209,2.335,7.709,7.709,0,0,0,.729,2.223,7.255,7.255,0,0,0,1.375,1.884,7.349,7.349,0,0,0,1.89,1.375,7.831,7.831,0,0,0,2.219.736,15.694,15.694,0,0,0,2.337.206c.362.007.716.012,1.073.012.427,0,.85,0,1.278,0h117.409c.42,0,.845,0,1.265,0,.356,0,.72,0,1.076-.012a15.573,15.573,0,0,0,2.334-.206,7.933,7.933,0,0,0,2.227-.736,7.319,7.319,0,0,0,1.889-1.375,7.487,7.487,0,0,0,1.378-1.884,7.712,7.712,0,0,0,.722-2.223,15.523,15.523,0,0,0,.217-2.335c.005-.363.005-.715.005-1.077.009-.425.009-.846.009-1.276v-24.426c0-.427,0-.851-.009-1.274,0-.357,0-.717-.005-1.074a15.525,15.525,0,0,0-.217-2.336,7.7,7.7,0,0,0-.722-2.222,7.544,7.544,0,0,0-3.267-3.268,7.923,7.923,0,0,0-2.227-.732,15.2,15.2,0,0,0-2.334-.205c-.356-.006-.72-.013-1.076-.015-.419,0-.845,0-1.265,0Z" transform="translate(-6865.688 -4707.655)" fill="#fff"/><g transform="translate(11.216 9.158)"><path d="M6893.257,4728.645a6,6,0,0,1,2.861-5.039,6.153,6.153,0,0,0-4.846-2.619c-2.037-.213-4.013,1.22-5.051,1.22-1.059,0-2.658-1.2-4.379-1.162a6.446,6.446,0,0,0-5.428,3.31c-2.348,4.063-.6,10.037,1.652,13.321,1.125,1.608,2.439,3.406,4.159,3.341,1.684-.069,2.313-1.072,4.345-1.072,2.014,0,2.6,1.072,4.358,1.033,1.806-.03,2.944-1.616,4.03-3.24a13.315,13.315,0,0,0,1.843-3.753A5.8,5.8,0,0,1,6893.257,4728.645Z" transform="translate(-6875.298 -4714.59)"/><path d="M6888.41,4719.739a5.926,5.926,0,0,0,1.353-4.236,6.009,6.009,0,0,0-3.893,2.015,5.621,5.621,0,0,0-1.388,4.079A4.978,4.978,0,0,0,6888.41,4719.739Z" transform="translate(-6873.767 -4715.503)"/><g transform="translate(28.964 11.699)"><path d="M6909.307,4736.31h-5.524l-1.327,3.917h-2.34l5.233-14.493h2.431l5.232,14.493h-2.38Zm-4.952-1.808h4.379l-2.159-6.357h-.06Z" transform="translate(-6900.116 -4725.492)"/><path d="M6922.273,4734.4c0,3.283-1.758,5.393-4.411,5.393a3.58,3.58,0,0,1-3.323-1.849h-.05v5.234h-2.17v-14.062h2.1v1.758h.04a3.751,3.751,0,0,1,3.365-1.868C6920.505,4729,6922.273,4731.123,6922.273,4734.4Zm-2.229,0c0-2.139-1.106-3.546-2.793-3.546-1.656,0-2.771,1.436-2.771,3.546,0,2.129,1.115,3.555,2.771,3.555,1.687,0,2.792-1.4,2.792-3.555Z" transform="translate(-6898.077 -4724.946)"/><path d="M6932.239,4734.4c0,3.283-1.757,5.393-4.41,5.393a3.582,3.582,0,0,1-3.324-1.849h-.05v5.234h-2.169v-14.062h2.1v1.758h.041a3.749,3.749,0,0,1,3.364-1.868C6930.471,4729,6932.239,4731.123,6932.239,4734.4Zm-2.23,0c0-2.139-1.105-3.546-2.792-3.546-1.657,0-2.772,1.436-2.772,3.546,0,2.129,1.115,3.555,2.772,3.555C6928.9,4737.953,6930.009,4736.557,6930.009,4734.4Z" transform="translate(-6896.412 -4724.946)"/><path d="M6937.717,4736.223c.161,1.438,1.557,2.381,3.465,2.381,1.828,0,3.143-.943,3.143-2.239,0-1.125-.794-1.8-2.671-2.26l-1.878-.453c-2.662-.643-3.9-1.887-3.9-3.907,0-2.5,2.179-4.219,5.272-4.219,3.063,0,5.163,1.719,5.234,4.219H6944.2c-.132-1.447-1.328-2.32-3.075-2.32s-2.943.885-2.943,2.169c0,1.024.765,1.628,2.631,2.089l1.6.392c2.972.7,4.207,1.9,4.207,4.019,0,2.71-2.159,4.408-5.594,4.408-3.214,0-5.383-1.658-5.523-4.279Z" transform="translate(-6894.205 -4725.526)"/><path d="M6949.568,4726.956v2.5h2.008v1.717h-2.008V4737c0,.905.4,1.327,1.285,1.327a6.717,6.717,0,0,0,.713-.05v1.708a5.978,5.978,0,0,1-1.205.1c-2.14,0-2.974-.8-2.974-2.853v-6.057h-1.536v-1.717h1.536v-2.5Z" transform="translate(-6892.475 -4725.288)"/><path d="M6951.752,4734.4c0-3.325,1.958-5.414,5.012-5.414s5.012,2.089,5.012,5.414-1.938,5.414-5.012,5.414S6951.752,4737.734,6951.752,4734.4Zm7.815,0c0-2.28-1.045-3.626-2.8-3.626s-2.8,1.356-2.8,3.626c0,2.29,1.045,3.625,2.8,3.625s2.8-1.335,2.8-3.625Z" transform="translate(-6891.488 -4724.949)"/><path d="M6961.875,4729.114h2.068v1.8h.05a2.521,2.521,0,0,1,2.542-1.909,3.332,3.332,0,0,1,.742.081v2.028a3.046,3.046,0,0,0-.974-.131,2.187,2.187,0,0,0-2.273,2.1,2.328,2.328,0,0,0,.013.335v6.268h-2.168Z" transform="translate(-6889.797 -4724.946)"/><path d="M6976.437,4736.58c-.291,1.919-2.16,3.234-4.55,3.234-3.073,0-4.981-2.059-4.981-5.363s1.918-5.464,4.891-5.464c2.923,0,4.761,2.008,4.761,5.212v.743H6969.1v.131a2.754,2.754,0,0,0,2.841,2.993,2.391,2.391,0,0,0,2.44-1.486Zm-7.331-3.153h5.282a2.541,2.541,0,0,0-2.4-2.679c-.065,0-.132,0-.2,0a2.673,2.673,0,0,0-2.69,2.659Z" transform="translate(-6888.956 -4724.949)"/></g></g></g><g transform="translate(41.631 9.633)"><path d="M6901.36,4723.352v-6.964h2.8c1.309,0,2.095.665,2.095,1.736a1.528,1.528,0,0,1-1.221,1.5v.082a1.647,1.647,0,0,1,1.568,1.674c0,1.226-.893,1.975-2.379,1.975Zm1.082-4.017h1.284c.955,0,1.452-.351,1.452-1.013,0-.643-.468-1.019-1.27-1.019h-1.467Zm1.563,3.1c.975,0,1.49-.4,1.49-1.133s-.536-1.111-1.554-1.111h-1.5v2.244Z" transform="translate(-6901.36 -4715.83)"/><path d="M6906.8,4721.634c0-.945.7-1.49,1.955-1.569l1.422-.082v-.455c0-.555-.366-.867-1.076-.867-.579,0-.979.212-1.095.584h-1c.1-.9.955-1.481,2.146-1.481,1.318,0,2.062.655,2.062,1.765v3.592h-1v-.738h-.082a1.77,1.77,0,0,1-1.578.825,1.589,1.589,0,0,1-1.744-1.416A1.4,1.4,0,0,1,6906.8,4721.634Zm3.377-.448v-.44l-1.283.082c-.723.049-1.053.295-1.053.758s.411.749.976.749a1.238,1.238,0,0,0,1.356-1.108Z" transform="translate(-6900.45 -4715.6)"/><path d="M6911.857,4716.621a.672.672,0,1,1,.711.631h-.038a.64.64,0,0,1-.672-.606Zm.154,1.555h1.034v5.255h-1.034Z" transform="translate(-6899.605 -4715.909)"/><path d="M6916.255,4721.243l-1.149,1.863h-1.138l1.742-2.616-1.757-2.64h1.211l1.13,1.853h.081l1.119-1.853h1.155l-1.733,2.6,1.752,2.659h-1.19l-1.145-1.863Z" transform="translate(-6899.256 -4715.584)"/><path d="M6918.776,4721.634c0-.945.705-1.49,1.955-1.569l1.424-.082v-.455c0-.555-.368-.867-1.076-.867-.579,0-.98.212-1.095.584h-1c.105-.9.956-1.481,2.147-1.481,1.318,0,2.062.655,2.062,1.765v3.592h-1v-.738h-.082a1.771,1.771,0,0,1-1.579.825,1.587,1.587,0,0,1-1.742-1.416C6918.78,4721.74,6918.778,4721.688,6918.776,4721.634Zm3.379-.448v-.44l-1.284.082c-.723.049-1.052.295-1.052.758s.411.749.975.749a1.241,1.241,0,0,0,1.358-1.108Z" transform="translate(-6898.449 -4715.6)"/><path d="M6923.947,4717.864h1v.805h.077a1.428,1.428,0,0,1,1.419-.893,2.22,2.22,0,0,1,.463.043v1.024a2.745,2.745,0,0,0-.579-.062,1.228,1.228,0,0,0-1.336,1.115c0,.04,0,.08,0,.119v3.1h-1.038Z" transform="translate(-6897.585 -4715.598)"/><path d="M6929.907,4717.866h1v.834h.078a1.571,1.571,0,0,1,1.567-.935,1.709,1.709,0,0,1,1.833,1.577,1.685,1.685,0,0,1-.014.377v3.4h-1.038v-3.142c0-.845-.366-1.265-1.133-1.265a1.206,1.206,0,0,0-1.261,1.148,1.293,1.293,0,0,0,0,.185v3.074h-1.037Z" transform="translate(-6896.59 -4715.6)"/><path d="M6934.85,4721.634c0-.945.705-1.49,1.955-1.569l1.424-.082v-.455c0-.555-.367-.867-1.076-.867-.579,0-.98.212-1.1.584h-1c.106-.9.954-1.481,2.147-1.481,1.318,0,2.06.655,2.06,1.765v3.592h-1v-.738h-.082a1.774,1.774,0,0,1-1.58.825,1.589,1.589,0,0,1-1.744-1.416C6934.854,4721.74,6934.85,4721.688,6934.85,4721.634Zm3.378-.448v-.44l-1.283.082c-.724.049-1.052.295-1.052.758s.41.749.975.749a1.24,1.24,0,0,0,1.357-1.108Z" transform="translate(-6895.764 -4715.6)"/></g></svg>