<svg width="642" height="359" viewBox="0 0 642 359" fill="none" xmlns="http://www.w3.org/2000/svg">
<path d="M613.839 344.119V10.4278C613.839 4.90722 608.941 0 602.819 0H58.5689C53.0591 0 48.1614 4.90722 48.1614 10.4278V344.119H20C20 350.866 25.5098 356.387 32.2441 356.387H629.144C635.878 356.387 641.388 350.866 641.388 344.119H613.839ZM53.6713 10.4278C53.6713 7.36083 56.1201 5.52062 58.5689 5.52062H602.819C605.88 5.52062 607.717 7.97423 607.717 10.4278V344.119H53.6713V10.4278Z" fill="#00C65E"/>
<rect x="5" y="143" width="95" height="211" rx="9" fill="#00C65E"/>
<path d="M47.6589 248.61C47.0448 247.829 46.1887 247.444 45.0814 247.444C44.0206 247.444 43.118 247.858 42.3549 248.676C41.6105 249.494 41.229 250.481 41.229 251.666C41.229 252.851 41.6105 253.857 42.3549 254.675C43.118 255.493 44.0206 255.888 45.0814 255.888C46.1887 255.888 47.0448 255.502 47.6589 254.722V255.662H49.7061V247.67H47.6589V248.61ZM47.0262 253.292C46.6167 253.706 46.0956 253.913 45.4629 253.913C44.8301 253.913 44.309 253.706 43.8996 253.292C43.4902 252.86 43.2855 252.315 43.2855 251.666C43.2855 251.017 43.4902 250.462 43.8996 250.048C44.309 249.616 44.8301 249.409 45.4629 249.409C46.0956 249.409 46.6167 249.616 47.0262 250.048C47.4542 250.462 47.6589 251.008 47.6589 251.666C47.6589 252.324 47.4542 252.86 47.0262 253.292Z" fill="white"/>
<path d="M54.8983 247.434C53.6793 247.434 52.665 247.839 51.8927 248.647C51.1203 249.447 50.7202 250.453 50.7202 251.656C50.7202 252.869 51.1203 253.875 51.9113 254.675C52.7022 255.474 53.7444 255.878 55.0564 255.878C56.5732 255.878 57.727 255.305 58.5087 254.167L56.8617 253.208C56.4615 253.734 55.866 254.007 55.0937 254.007C53.8747 254.007 53.1303 253.509 52.8604 252.503H58.8251C58.8716 252.202 58.9088 251.929 58.9088 251.656C58.9088 250.453 58.5273 249.465 57.7736 248.647C57.0198 247.839 56.0614 247.434 54.8983 247.434ZM52.8325 250.914C53.0744 249.889 53.8095 249.296 54.9076 249.296C55.8381 249.296 56.629 249.823 56.871 250.914H52.8325Z" fill="white"/>
<path d="M66.1483 248.657C65.5434 247.839 64.706 247.444 63.6173 247.444C62.5099 247.444 61.5794 247.848 60.8164 248.647C60.0534 249.447 59.6812 250.406 59.6812 251.544C59.6812 252.681 60.0627 253.65 60.8071 254.458C61.5701 255.239 62.5006 255.643 63.6266 255.643C64.7153 255.643 65.5527 255.239 66.1576 254.43V255.201C66.1576 256.461 65.3666 257.166 64.0825 257.166C63.1055 257.166 62.4076 256.8 62.0075 256.048L60.2674 257.054C60.9653 258.332 62.3052 259 64.0174 259C65.1526 259 66.1204 258.68 66.9299 258.022C67.7395 257.364 68.1489 256.424 68.1489 255.192V247.67H66.1576V248.657H66.1483ZM63.9243 253.725C62.6402 253.725 61.7097 252.813 61.7097 251.534C61.7097 250.914 61.9144 250.387 62.3238 249.983C62.7519 249.569 63.273 249.362 63.9243 249.362C64.5757 249.362 65.0968 249.569 65.5062 249.983C65.9343 250.387 66.139 250.914 66.139 251.534C66.1483 252.813 65.2085 253.725 63.9243 253.725Z" fill="white"/>
<path d="M71.7129 249.042V247.66H69.675V255.653H71.7129V251.835C71.7129 251.064 71.9548 250.528 72.4387 250.189C72.9319 249.851 73.4995 249.729 74.1136 249.804V247.5C73.0435 247.5 72.0944 248.017 71.7129 249.042Z" fill="white"/>
<path d="M81.781 248.666C80.9714 247.848 79.9757 247.434 78.8033 247.434C77.6308 247.434 76.6352 247.848 75.8256 248.666C75.0161 249.484 74.6252 250.472 74.6252 251.656C74.6252 252.841 75.0254 253.847 75.8256 254.665C76.6259 255.483 77.6308 255.878 78.8033 255.878C79.9757 255.878 80.9714 255.474 81.781 254.665C82.5905 253.857 82.9999 252.841 82.9999 251.656C82.9999 250.472 82.5905 249.484 81.781 248.666ZM80.3386 253.245C79.9292 253.659 79.4174 253.866 78.8033 253.866C78.1891 253.866 77.6774 253.659 77.2679 253.245C76.8678 252.832 76.6631 252.305 76.6631 251.666C76.6631 251.026 76.8678 250.5 77.2679 250.086C77.6774 249.672 78.1891 249.465 78.8033 249.465C79.4174 249.465 79.9292 249.672 80.3386 250.086C80.7481 250.5 80.9528 251.026 80.9528 251.666C80.9528 252.305 80.7481 252.832 80.3386 253.245Z" fill="white"/>
<path d="M31.5701 239H24.312V239.668C24.312 241.934 25.5589 243.899 27.3921 244.924C24.8145 246.043 23 248.638 23 251.656C23 255.709 26.2475 258.991 30.2581 258.991C32.7146 258.991 34.8828 257.759 36.1948 255.869V258.323H37.5161V244.999C37.5068 241.689 34.8548 239 31.5701 239ZM30.2581 257.655C26.9826 257.655 24.3213 254.966 24.3213 251.656C24.3213 248.346 26.9733 245.667 30.2581 245.667C33.5335 245.667 36.1948 248.356 36.1948 251.666C36.1948 254.976 33.5335 257.655 30.2581 257.655ZM36.1855 247.453C34.8735 245.573 32.7053 244.331 30.2488 244.331C27.9225 244.331 25.9963 242.592 25.6799 240.335H31.5701C34.1197 240.335 36.1855 242.423 36.1855 244.999V247.453Z" fill="white"/>
<path d="M91.7647 140H12.2353C5.50588 140 0 145.506 0 152.235V346.154C0 352.883 5.50588 358.388 12.2353 358.388H91.7647C98.4941 358.388 104 352.883 104 346.154V152.235C104 145.506 98.4941 140 91.7647 140ZM98.4941 346.765C98.4941 350.436 95.4353 353.494 91.7647 353.494H12.2353C8.56471 353.494 5.50588 350.436 5.50588 346.765V152.235C5.50588 148.564 8.56471 145.506 12.2353 145.506H22.6353C22.6353 150.399 26.9176 154.07 31.8118 154.07H72.1882C77.0824 154.07 80.7529 150.399 81.3647 145.506H91.7647C95.4353 145.506 98.4941 148.564 98.4941 152.235V346.765Z" fill="#005F61"/>
</svg>
