<svg xmlns="http://www.w3.org/2000/svg" width="8.689" height="18.705" viewBox="0 0 8.689 18.705"><path d="M4758.108,3473.907a.236.236,0,0,1-.236.236H4756a.833.833,0,0,0-.833.833v1.965h2.668a.235.235,0,0,1,.235.255l-.234,2.77a.236.236,0,0,1-.235.216h-2.434v9.19a.236.236,0,0,1-.235.236h-3.359a.235.235,0,0,1-.235-.236v-9.19h-1.679a.235.235,0,0,1-.235-.236v-2.769a.235.235,0,0,1,.235-.235h1.679v-2.67a3.369,3.369,0,0,1,3.369-3.369h3.17a.235.235,0,0,1,.236.235Z" transform="translate(-4749.419 -3470.903)" fill="#fff" fill-rule="evenodd"/></svg>