<svg xmlns="http://www.w3.org/2000/svg" xmlns:xlink="http://www.w3.org/1999/xlink" width="156.389" height="46.337" viewBox="0 0 156.389 46.337"><defs><linearGradient id="a" x1="0.915" y1="-467.468" x2="-0.383" y2="-468.138" gradientUnits="objectBoundingBox"><stop offset="0" stop-color="#00a0ff"/><stop offset="0.007" stop-color="#00a1ff"/><stop offset="0.26" stop-color="#00beff"/><stop offset="0.512" stop-color="#00d2ff"/><stop offset="0.76" stop-color="#00dfff"/><stop offset="1" stop-color="#00e3ff"/></linearGradient><linearGradient id="b" x1="1.076" y1="-1372.297" x2="-1.305" y2="-1372.297" gradientUnits="objectBoundingBox"><stop offset="0" stop-color="#ffe000"/><stop offset="0.409" stop-color="#ffbd00"/><stop offset="0.775" stop-color="orange"/><stop offset="1" stop-color="#ff9c00"/></linearGradient><linearGradient id="c" x1="0.862" y1="-913.274" x2="-0.501" y2="-915.043" gradientUnits="objectBoundingBox"><stop offset="0" stop-color="#ff3a44"/><stop offset="1" stop-color="#c31162"/></linearGradient><linearGradient id="d" x1="-0.188" y1="-910.588" x2="0.421" y2="-911.379" gradientUnits="objectBoundingBox"><stop offset="0" stop-color="#32a071"/><stop offset="0.068" stop-color="#2da771"/><stop offset="0.476" stop-color="#15cf74"/><stop offset="0.801" stop-color="#06e775"/><stop offset="1" stop-color="#00f076"/></linearGradient></defs><g transform="translate(0 0)"><path d="M6865.408,4703.524H6720.6a5.81,5.81,0,0,0-5.792,5.792v34.753a5.81,5.81,0,0,0,5.792,5.792h144.8a5.809,5.809,0,0,0,5.792-5.792v-34.753a5.809,5.809,0,0,0-5.792-5.792Z" transform="translate(-6714.812 -4703.524)" fill="#fff"/></g><g transform="translate(11.552 8.272)"><path d="M6725.32,4711.073a2.32,2.32,0,0,0-.537,1.628v25.62a2.313,2.313,0,0,0,.537,1.627l.085.084,14.352-14.352v-.338l-14.352-14.352Z" transform="translate(-6724.784 -4710.613)" fill="url(#a)"/><path d="M6742.493,4729.158l-4.783-4.787v-.338l4.785-4.784.109.061,5.667,3.221c1.619.919,1.619,2.424,0,3.345l-5.667,3.221Z" transform="translate(-6722.736 -4709.305)" fill="url(#b)"/><path d="M6744.577,4728.418l-4.893-4.893-14.437,14.437a1.882,1.882,0,0,0,2.407.071l16.923-9.615" transform="translate(-6724.71 -4708.627)" fill="url(#c)"/><path d="M6744.577,4720.668l-16.923-9.615a1.885,1.885,0,0,0-2.407.071l14.438,14.438Z" transform="translate(-6724.71 -4710.665)" fill="url(#d)"/><g transform="translate(0 19.683)"><path d="M6744.469,4727.656l-16.815,9.553a1.927,1.927,0,0,1-2.32.013h0l-.087.086h0l.085.084h0a1.927,1.927,0,0,0,2.32-.013l16.923-9.615Z" transform="translate(-6724.71 -4727.656)" opacity="0.2" style="isolation:isolate"/><path d="M6725.32,4736.064a2.316,2.316,0,0,1-.537-1.627v.169a2.317,2.317,0,0,0,.537,1.627l.086-.087Z" transform="translate(-6724.784 -4726.581)" opacity="0.12" style="isolation:isolate"/></g><path d="M6747.616,4725.029l-5.776,3.281.108.108,5.668-3.22a2.036,2.036,0,0,0,1.215-1.672h0A2.162,2.162,0,0,1,6747.616,4725.029Z" transform="translate(-6722.082 -4708.627)" opacity="0.12" style="isolation:isolate"/><path d="M6727.727,4711.223l22.591,12.835a2.159,2.159,0,0,1,1.215,1.5h0a2.034,2.034,0,0,0-1.215-1.673l-22.591-12.836c-1.618-.919-2.943-.155-2.943,1.7v.168C6724.784,4711.068,6726.109,4710.3,6727.727,4711.223Z" transform="translate(-6724.784 -4710.664)" fill="#fff" opacity="0.25" style="isolation:isolate"/></g><g transform="translate(47.543 6.323)"><path d="M6787.241,4726.021a4.927,4.927,0,1,0,4.945,4.927A4.857,4.857,0,0,0,6787.241,4726.021Zm0,7.913a2.994,2.994,0,1,1,2.78-2.986A2.852,2.852,0,0,1,6787.241,4733.934Zm-10.791-7.913a4.927,4.927,0,1,0,4.946,4.927A4.856,4.856,0,0,0,6776.45,4726.021Zm0,7.913a2.994,2.994,0,1,1,2.783-2.986A2.851,2.851,0,0,1,6776.45,4733.934Zm-12.833-6.4v2.089h5a4.371,4.371,0,0,1-1.139,2.632,5.12,5.12,0,0,1-3.863,1.53,5.563,5.563,0,0,1,0-11.124,5.332,5.332,0,0,1,3.77,1.494l1.473-1.475a7.288,7.288,0,0,0-5.243-2.11,7.653,7.653,0,1,0,0,15.3,6.993,6.993,0,0,0,5.337-2.146,6.909,6.909,0,0,0,1.811-4.89,6.758,6.758,0,0,0-.113-1.305Zm52.487,1.622a4.58,4.58,0,0,0-4.217-3.134,4.683,4.683,0,0,0-4.648,4.927,4.822,4.822,0,0,0,4.89,4.927,4.9,4.9,0,0,0,4.105-2.184l-1.68-1.119a2.813,2.813,0,0,1-2.425,1.362,2.507,2.507,0,0,1-2.389-1.493l6.588-2.725Zm-6.719,1.643a2.7,2.7,0,0,1,2.575-2.874,1.911,1.911,0,0,1,1.83,1.045Zm-5.356,4.777h2.166v-14.481h-2.166Zm-3.546-8.454h-.075a3.417,3.417,0,0,0-2.594-1.1,4.931,4.931,0,0,0,0,9.854,3.356,3.356,0,0,0,2.594-1.121h.075v.71c0,1.884-1.008,2.892-2.631,2.892a2.727,2.727,0,0,1-2.482-1.754l-1.884.784a4.693,4.693,0,0,0,4.367,2.911c2.539,0,4.684-1.493,4.684-5.132v-8.847h-2.052Zm-2.482,6.813a3,3,0,0,1,0-5.972,3.01,3.01,0,0,1,0,5.972Zm28.244-12.84h-5.181v14.481h2.162v-5.486h3.019a4.5,4.5,0,1,0,0-9Zm.056,6.979h-3.074v-4.963h3.074a2.482,2.482,0,1,1,0,4.963Zm13.357-2.079a4.057,4.057,0,0,0-3.856,2.217l1.919.8a2.052,2.052,0,0,1,1.976-1.062,2.081,2.081,0,0,1,2.273,1.864v.149a4.778,4.778,0,0,0-2.254-.559c-2.07,0-4.174,1.136-4.174,3.262a3.347,3.347,0,0,0,3.6,3.186,3.048,3.048,0,0,0,2.757-1.417h.075v1.118h2.086V4730C6844.056,4727.429,6842.137,4725.995,6839.658,4725.995Zm-.26,7.936c-.708,0-1.7-.353-1.7-1.229,0-1.118,1.229-1.546,2.292-1.546a3.861,3.861,0,0,1,1.975.484A2.62,2.62,0,0,1,6839.4,4733.931Zm12.26-7.62-2.478,6.278h-.074l-2.572-6.278h-2.328l3.857,8.775-2.2,4.882h2.254l5.943-13.657Zm-19.471,9.265h2.162v-14.481h-2.162Z" transform="translate(-6755.853 -4707.146)"/><g transform="translate(0.344)"><path d="M6756.149,4717.474v-6.95h2.126a3.453,3.453,0,0,1,2.562.966,3.758,3.758,0,0,1,0,5.019,3.453,3.453,0,0,1-2.562.966Zm.892-.854h1.234a2.624,2.624,0,1,0,0-5.243h-1.234Z" transform="translate(-6756.149 -4708.738)"/><path d="M6762.108,4717.474v-6.95H6763v6.95Z" transform="translate(-6755.205 -4708.738)"/><path d="M6766.276,4717.651a2.59,2.59,0,0,1-1.479-.5,2.29,2.29,0,0,1-.947-1.389l.816-.329a1.867,1.867,0,0,0,.595.965,1.511,1.511,0,0,0,1.015.394,1.626,1.626,0,0,0,1-.306.98.98,0,0,0,.412-.831,1.066,1.066,0,0,0-.412-.9,4.291,4.291,0,0,0-1.305-.587,3.491,3.491,0,0,1-1.4-.752,1.572,1.572,0,0,1-.476-1.18,1.728,1.728,0,0,1,.592-1.3,2.174,2.174,0,0,1,1.543-.553,2.239,2.239,0,0,1,1.438.441,2.053,2.053,0,0,1,.718.966l-.814.34a1.211,1.211,0,0,0-.432-.611,1.517,1.517,0,0,0-1.768.006.87.87,0,0,0-.363.712.807.807,0,0,0,.334.655,3.192,3.192,0,0,0,.985.481,8.457,8.457,0,0,1,.861.321,3.894,3.894,0,0,1,.7.413,1.632,1.632,0,0,1,.534.641,2.056,2.056,0,0,1,.18.888,1.924,1.924,0,0,1-.207.9,1.71,1.71,0,0,1-.555.631,2.733,2.733,0,0,1-.742.354A2.79,2.79,0,0,1,6766.276,4717.651Z" transform="translate(-6754.929 -4708.759)"/><path d="M6769.947,4717.474h-.892v-6.95h2.368a2.192,2.192,0,0,1,1.528.587,2.017,2.017,0,0,1,0,2.961,2.193,2.193,0,0,1-1.528.588h-1.477Zm0-3.67h1.5a1.154,1.154,0,0,0,.9-.377,1.2,1.2,0,0,0,0-1.669,1.152,1.152,0,0,0-.9-.379h-1.5Z" transform="translate(-6754.105 -4708.738)"/><path d="M6779.692,4716.6a3.609,3.609,0,0,1-5.1,0,3.753,3.753,0,0,1,0-5.154,3.6,3.6,0,0,1,5.093,0,3.748,3.748,0,0,1,0,5.15Zm-4.437-.582a2.671,2.671,0,0,0,3.775,0,2.961,2.961,0,0,0,0-3.99,2.671,2.671,0,0,0-3.775,0,2.967,2.967,0,0,0,0,3.99Z" transform="translate(-6753.389 -4708.759)"/><path d="M6780.819,4717.474v-6.95h1.088l3.378,5.407h.038l-.038-1.34v-4.067h.893v6.95h-.931l-3.535-5.668h-.038l.038,1.339v4.329Z" transform="translate(-6752.24 -4708.738)"/><path d="M6786.819,4717.719v-6.951h.894v6.951Zm.836-7.494h-.777l.506-1.243h.971Z" transform="translate(-6751.29 -4708.982)"/><path d="M6790.782,4717.474l-2.445-6.95h.99l1.9,5.641h.039l1.98-5.641h.99l-2.524,6.95Z" transform="translate(-6751.05 -4708.738)"/><path d="M6798.361,4711.378H6795.2v2.2h2.854v.835H6795.2v2.2h3.166v.854H6794.3v-6.95h4.058Z" transform="translate(-6750.104 -4708.738)"/><path d="M6799.014,4717.474v-6.95h.892v6.1h3.009v.854Z" transform="translate(-6749.358 -4708.738)"/><path d="M6805.365,4717.474v-6.95h1.087l3.378,5.407h.038l-.038-1.34v-4.067h.894v6.95h-.931l-3.535-5.668h-.038l.038,1.339v4.329Z" transform="translate(-6748.352 -4708.738)"/><path d="M6817.108,4716.6a3.609,3.609,0,0,1-5.1,0,3.755,3.755,0,0,1,0-5.154,3.6,3.6,0,0,1,5.092,0,3.747,3.747,0,0,1,0,5.15Zm-4.437-.582a2.671,2.671,0,0,0,3.775,0,2.963,2.963,0,0,0,0-3.99,2.671,2.671,0,0,0-3.775,0,2.964,2.964,0,0,0,0,3.99Z" transform="translate(-6747.462 -4708.759)"/></g></g></svg>