<svg xmlns="http://www.w3.org/2000/svg" width="22.493" height="22.492" viewBox="0 0 22.493 22.492"><path d="M4704.472,3479.125a1.322,1.322,0,1,1,1.322-1.322A1.322,1.322,0,0,1,4704.472,3479.125Z" transform="translate(-4687.308 -3472.34)" fill="#fff"/><path d="M4694.83,3470.2h-8.941a6.775,6.775,0,0,0-6.776,6.774v8.943a6.775,6.775,0,0,0,6.776,6.775h8.941a6.775,6.775,0,0,0,6.775-6.775v-8.943A6.775,6.775,0,0,0,4694.83,3470.2Zm4.653,15.718a4.653,4.653,0,0,1-4.653,4.653h-8.941a4.653,4.653,0,0,1-4.653-4.653v-8.943a4.653,4.653,0,0,1,4.653-4.653h8.941a4.653,4.653,0,0,1,4.653,4.653Z" transform="translate(-4679.113 -3470.198)" fill="#fff"/><path d="M4693.362,3479.054a5.555,5.555,0,1,0,5.555,5.554A5.561,5.561,0,0,0,4693.362,3479.054Zm0,9.113a3.558,3.558,0,1,1,3.558-3.558A3.562,3.562,0,0,1,4693.362,3488.167Z" transform="translate(-4682.077 -3473.218)" fill="#fff"/></svg>