<svg xmlns="http://www.w3.org/2000/svg" width="18.968" height="18.116" viewBox="0 0 18.968 18.116"><path d="M4953.628,3494.239a.3.3,0,0,1-.3.3h-3.461a.3.3,0,0,1-.3-.3V3488c0-1.641-.586-2.761-2.056-2.761a2.221,2.221,0,0,0-2.083,1.485,2.789,2.789,0,0,0-.135.99v6.522a.3.3,0,0,1-.3.3h-3.46a.3.3,0,0,1-.3-.3c.008-1.661.042-9.718.007-11.611a.3.3,0,0,1,.3-.3h3.453a.3.3,0,0,1,.3.3v1.431a4.034,4.034,0,0,1,3.66-2.018c2.672,0,4.676,1.746,4.676,5.5Z" transform="translate(-4934.66 -3476.423)" fill="#fff"/><rect width="4.06" height="12.215" rx="0.455" transform="translate(0.265 5.901)" fill="#fff"/><path d="M4933.434,3477.866a2.174,2.174,0,1,1,2.174-2.174A2.174,2.174,0,0,1,4933.434,3477.866Z" transform="translate(-4931.26 -3473.518)" fill="#fff"/></svg>