<svg xmlns="http://www.w3.org/2000/svg" width="127.397" height="42.005" viewBox="0 0 127.397 42.005"><g transform="translate(-143 -39)"><g transform="translate(143 39)"><path d="M318.76,241.019a6.581,6.581,0,0,0-5.477-2.453,7.665,7.665,0,0,0-5.78,2.587,9.512,9.512,0,0,0,0,12.6,7.632,7.632,0,0,0,5.78,2.554,6.581,6.581,0,0,0,5.477-2.453v1.982h4.335v-16.8H318.76Zm-1.344,9.846a4.878,4.878,0,0,1-6.653,0,4.743,4.743,0,0,1-1.311-3.427,4.61,4.61,0,0,1,1.311-3.394,4.789,4.789,0,0,1,6.653,0,4.506,4.506,0,0,1,1.344,3.394A4.633,4.633,0,0,1,317.416,250.865Z" transform="translate(-266.395 -220.834)" fill="#fff"/><path d="M415.948,238.566a8.48,8.48,0,0,0-6.384,2.554,9.265,9.265,0,0,0,.034,12.668,9.021,9.021,0,0,0,6.687,2.52,8.346,8.346,0,0,0,7.325-3.6l-3.495-2.016a4.464,4.464,0,0,1-3.764,1.68c-2.587,0-4.167-1.042-4.738-3.159h12.668a11.328,11.328,0,0,0,.168-1.781,8.833,8.833,0,0,0-2.419-6.317A7.92,7.92,0,0,0,415.948,238.566Zm-4.4,7.292a4.19,4.19,0,0,1,4.4-3.394,4.061,4.061,0,0,1,4.167,3.394Z" transform="translate(-348.21 -220.834)" fill="#fff"/><path d="M516.977,241.12a6.291,6.291,0,0,0-5.377-2.554,7.923,7.923,0,0,0-5.948,2.52,8.447,8.447,0,0,0-2.419,6.082,8.637,8.637,0,0,0,2.386,6.116,8.037,8.037,0,0,0,5.982,2.487,6.291,6.291,0,0,0,5.377-2.554v1.624c0,2.655-1.68,4.133-4.4,4.133a4.557,4.557,0,0,1-4.4-2.352l-3.7,2.117c1.478,2.688,4.335,4.1,7.964,4.1a9.526,9.526,0,0,0,6.183-2.05,7.2,7.2,0,0,0,2.587-5.948v-15.8h-4.234Zm-4.7,10.652a4.493,4.493,0,0,1-4.7-4.6,4.354,4.354,0,0,1,1.311-3.259,4.663,4.663,0,0,1,3.394-1.311,4.531,4.531,0,0,1,3.36,1.311,4.259,4.259,0,0,1,1.344,3.259A4.493,4.493,0,0,1,512.272,251.772Z" transform="translate(-425.368 -220.834)" fill="#fff"/><path d="M615.013,242.472v-2.89h-4.335v16.8h4.335v-8.031a3.853,3.853,0,0,1,1.546-3.461,5.047,5.047,0,0,1,3.562-.807v-4.839A5.153,5.153,0,0,0,615.013,242.472Z" transform="translate(-511.584 -221.38)" fill="#fff"/><path d="M679.143,241.153a9.006,9.006,0,0,0-12.635,0,8.923,8.923,0,0,0,12.635,12.6,8.965,8.965,0,0,0,0-12.6Zm-3.058,9.61a4.709,4.709,0,0,1-6.519,0,4.972,4.972,0,0,1,0-6.653,4.709,4.709,0,0,1,6.519,0,4.878,4.878,0,0,1,0,6.653Z" transform="translate(-554.334 -220.834)" fill="#fff"/><path d="M127.336,148.819h-15.4v1.4a12.6,12.6,0,0,0,6.533,11.045,15.4,15.4,0,1,0,18.67,23.008v5.151h2.8v-28A12.6,12.6,0,0,0,127.336,148.819Zm-2.8,39.2a12.6,12.6,0,1,1,12.6-12.6A12.6,12.6,0,0,1,124.536,188.023Zm12.6-21.452a15.379,15.379,0,0,0-12.6-6.551,9.8,9.8,0,0,1-9.7-8.4h12.5a9.8,9.8,0,0,1,9.8,9.8Z" transform="translate(-109.134 -148.819)" fill="#fff"/></g></g></svg>