<svg xmlns="http://www.w3.org/2000/svg" width="51.615" height="51.615" viewBox="0 0 51.615 51.615"><path d="M71.615,43.462H66.79A21.119,21.119,0,0,0,48.153,24.825V20H43.462v4.825A21.119,21.119,0,0,0,24.825,43.462H20v4.692h4.825A21.119,21.119,0,0,0,43.462,66.79v4.825h4.692V66.79A21.119,21.119,0,0,0,66.79,48.153h4.825Zm-23.462,18.6V57.538H43.462v4.523A16.431,16.431,0,0,1,29.554,48.153h4.523V43.462H29.554A16.43,16.43,0,0,1,43.462,29.554v4.523h4.692V29.554A16.429,16.429,0,0,1,62.061,43.462H57.538v4.692h4.523A16.43,16.43,0,0,1,48.153,62.061Z" transform="translate(-20 -20)" fill="#00c65e"/></svg>