<svg xmlns="http://www.w3.org/2000/svg" width="60.105" height="51.45" viewBox="0 0 60.105 51.45"><g transform="translate(-1201.809 -263.974)"><rect width="4.515" height="7.95" transform="translate(1236.729 263.974)" fill="#00c65e"/><rect width="7.951" height="4.515" transform="translate(1248.018 274.678) rotate(-45)" fill="#00c65e"/><rect width="4.515" height="7.951" transform="translate(1221.34 272.248) rotate(-45)" fill="#00c65e"/><rect width="7.951" height="4.515" transform="translate(1253.963 284.644)" fill="#00c65e"/><path d="M1250.409,294.277a12.611,12.611,0,0,0-11.422-17.975,12.667,12.667,0,0,0-11.793,8.141,16.492,16.492,0,0,0-17.894,12.684,10.362,10.362,0,0,0,2.873,20.318H1242.3a13,13,0,0,0,8.112-23.167Zm-11.422-13.461a8.1,8.1,0,0,1,7.452,11.292,12.915,12.915,0,0,0-7.2-.323,16.445,16.445,0,0,0-7.61-6.242A8.133,8.133,0,0,1,1238.986,280.817Zm3.31,32.113h-30.125a5.846,5.846,0,0,1-.671-11.653l1.756-.2.227-1.752a12.034,12.034,0,0,1,22.694-3.819l.94,1.874,1.937-.8a8.5,8.5,0,1,1,3.242,16.35Z" transform="translate(0 -2.021)" fill="#00c65e"/></g></svg>