<svg xmlns="http://www.w3.org/2000/svg" width="51.615" height="51.616" viewBox="0 0 51.615 51.616"><path d="M71.615,45.807a2.347,2.347,0,0,0-1.3-2.1l-7.534-3.767,7.534-3.766a2.346,2.346,0,0,0,0-4.2L46.856,20.247a2.35,2.35,0,0,0-2.1,0L21.3,31.978a2.347,2.347,0,0,0,0,4.2l7.534,3.766L21.3,43.708a2.347,2.347,0,0,0,0,4.2l7.534,3.767L21.3,55.44a2.347,2.347,0,0,0,0,4.2l23.462,11.73a2.347,2.347,0,0,0,2.1,0l23.462-11.73a2.346,2.346,0,0,0,0-4.2l-7.533-3.767,7.533-3.767A2.346,2.346,0,0,0,71.615,45.807ZM45.808,24.969l18.215,9.107L45.808,43.185,27.593,34.076ZM64.023,57.538,45.808,66.646,27.593,57.538,34.076,54.3l10.682,5.341a2.352,2.352,0,0,0,2.1,0L57.538,54.3Z" transform="translate(-20 -20)" fill="#00c65e"/></svg>