<?xml version="1.0" encoding="utf-8"?>
<!-- Generator: Adobe Illustrator 24.3.0, SVG Export Plug-In . SVG Version: 6.00 Build 0)  -->
<svg version="1.1" id="Camada_1" xmlns="http://www.w3.org/2000/svg" xmlns:xlink="http://www.w3.org/1999/xlink" x="0px" y="0px"
	 viewBox="0 0 25 25" style="enable-background:new 0 0 25 25;" xml:space="preserve">
<style type="text/css">
	.st0{fill:#00C65E;}
</style>
<path class="st0" d="M18.3,21.9c-0.1,0-0.2,0-0.2-0.1l-5.6-2.9l-5.6,2.9c-0.1,0-0.2,0.1-0.3,0.1c-0.1,0-0.2,0-0.2-0.1
	c-0.1-0.1-0.1-0.1-0.2-0.2c0-0.1,0-0.2,0-0.3l1.1-6.2l-4.5-4.4c-0.1-0.1-0.1-0.1-0.1-0.2c0-0.1,0-0.2,0-0.3c0-0.1,0.1-0.2,0.1-0.2
	C2.9,10,3,9.9,3.1,9.9L9.3,9l2.8-5.6c0-0.1,0.1-0.1,0.2-0.2c0.1,0,0.2-0.1,0.3-0.1c0.1,0,0.2,0,0.3,0.1c0.1,0,0.1,0.1,0.2,0.2
	L15.7,9l6.2,0.9c0.1,0,0.2,0.1,0.2,0.1c0.1,0.1,0.1,0.1,0.1,0.2c0,0.1,0,0.2,0,0.3c0,0.1-0.1,0.2-0.1,0.2l-4.5,4.4l1,6.1
	c0,0.1,0,0.1,0,0.2c0,0.1-0.1,0.3-0.1,0.3C18.6,21.8,18.4,21.9,18.3,21.9L18.3,21.9z"/>
</svg>
