<svg width="20" height="19" viewBox="0 0 20 19" fill="none" xmlns="http://www.w3.org/2000/svg">
<path d="M14.75 11.362C15 11.4855 15.16 11.552 15.21 11.647C15.27 11.7515 15.25 12.2265 15 12.768C14.8 13.3 13.76 13.813 13.3 13.832C12.84 13.851 12.83 14.174 10.34 13.1385C7.85 12.103 6.35 9.576 6.23 9.4145C6.11 9.253 5.27 8.1035 5.31 6.935C5.36 5.776 6 5.225 6.26 4.997C6.5 4.75 6.77 4.7215 6.94 4.75H7.41C7.56 4.75 7.77 4.693 7.96 5.1775L8.65 6.954C8.71 7.0775 8.75 7.22 8.66 7.372L8.39 7.7615L8 8.1605C7.88 8.2745 7.74 8.398 7.88 8.6355C8 8.8825 8.5 9.671 9.2 10.3265C10.11 11.1625 10.91 11.438 11.15 11.5615C11.39 11.6945 11.54 11.6755 11.69 11.5235L12.5 10.6305C12.69 10.393 12.85 10.45 13.08 10.526L14.75 11.362ZM10 0C11.3132 0 12.6136 0.245725 13.8268 0.723144C15.0401 1.20056 16.1425 1.90033 17.0711 2.78249C17.9997 3.66464 18.7362 4.71191 19.2388 5.86451C19.7413 7.0171 20 8.25244 20 9.5C20 12.0196 18.9464 14.4359 17.0711 16.2175C15.1957 17.9991 12.6522 19 10 19C8.03 19 6.2 18.4585 4.65 17.5275L0 19L1.55 14.5825C0.57 13.11 0 11.3715 0 9.5C0 6.98044 1.05357 4.56408 2.92893 2.78249C4.8043 1.00089 7.34784 0 10 0ZM10 1.9C7.87827 1.9 5.84344 2.70071 4.34315 4.12599C2.84285 5.55126 2 7.48435 2 9.5C2 11.134 2.54 12.6445 3.46 13.8795L2.5 16.625L5.39 15.713C6.69 16.587 8.28 17.1 10 17.1C12.1217 17.1 14.1566 16.2993 15.6569 14.874C17.1571 13.4487 18 11.5156 18 9.5C18 7.48435 17.1571 5.55126 15.6569 4.12599C14.1566 2.70071 12.1217 1.9 10 1.9Z" fill="white"/>
</svg>
